<svg xmlns="http://www.w3.org/2000/svg" width="48" height="35" viewBox="0 0 48 35" style="transform:scaleY(-1)">
<g id="prefix__icn_commas" style="fill:#1e3a58" data-name="icn/commas">
<path id="prefix__Path_17530" style="fill:#1e3a58" d="M0 41.946h11.566c-.2 8.38-2.589 9.331-5.591 9.6l-1.158.143v9.214l1.335-.071c3.921-.219 8.256-.922 11.149-4.471 2.535-3.111 3.653-8.195 3.653-16V25.9H0z" class="prefix__cls-1" data-name="Path 17530" transform="translate(0 -25.905)"></path>
<path id="prefix__Path_17531" style="fill:#1e3a58" d="M111 25.9v16.046h11.412c-.2 8.38-2.511 9.331-5.514 9.6l-1.081.143v9.214l1.258-.071c3.921-.219 8.3-.922 11.187-4.471 2.535-3.111 3.691-8.195 3.691-16V25.9z" class="prefix__cls-1" data-name="Path 17531" transform="translate(-83.953 -25.905)"></path>
</g>
</svg>